<svg width="200" height="150" viewBox="0 0 200 150" fill="none" xmlns="http://www.w3.org/2000/svg">
<path d="M194.488 60.6804C191.884 54.7168 176.099 40.0413 176.099 40.0413C176.099 40.0413 187.837 39.4277 190.295 39.0173C192.753 38.606 192.33 31.9267 191.821 28.6906C191.312 25.4526 187.244 24.8371 187.244 24.8371C187.244 24.8371 181.991 23.9753 178.939 23.8971C175.888 23.8103 176.017 27.0091 176.017 27.0091L176.526 34.7563H173.139C173.139 34.7563 158.73 4.5912 152.459 3.27997C146.574 2.04889 112.952 -0.00194051 99.7484 -3.17463e-05C86.6705 0.00187677 53.4303 2.04698 47.5458 3.27997C41.2724 4.5912 26.8661 34.7563 26.8661 34.7563H23.4726L23.9813 27.0091C23.9813 27.0091 24.11 23.8103 21.0595 23.8971C18.0081 23.9753 12.7551 24.8371 12.7551 24.8371C12.7551 24.8371 8.68816 25.4526 8.17748 28.6906C7.66777 31.9267 7.24577 38.606 9.70368 39.0173C12.1596 39.4277 23.8975 40.0413 23.8975 40.0413C23.8975 40.0413 8.11218 54.7168 5.51004 60.6804C2.904 66.642 -0.845219 118.532 0.170299 130.939C1.18776 143.36 2.98586 150 10.3508 150C17.7128 150 28.6038 150 28.6038 150C28.6038 150 35.1286 148.526 35.1286 139.425C35.1286 136.704 35.1286 134.801 35.1286 133.464L51.9499 134.591L56.7819 131.966H143.222L148.051 134.591L164.875 133.464C164.875 134.801 164.875 136.704 164.875 139.425C164.875 148.527 171.395 150 171.395 150C171.395 150 182.288 150 189.653 150C197.017 150 198.813 143.36 199.83 130.939C200.844 118.534 197.093 66.642 194.488 60.6804ZM46.4796 7.13351C49.6967 6.50748 86.7884 4.28677 100.248 4.28677C105.479 4.28677 150.295 6.50748 153.512 7.13351C156.93 7.80153 167.92 35.6591 167.92 35.6591H32.0753C32.0753 35.6591 43.0617 7.80153 46.4796 7.13351ZM145.137 60.9047C145.137 63.4451 145.137 77.381 145.137 77.381C145.137 77.381 145.057 80.411 142.417 80.411C140.828 80.411 138.901 80.411 137.308 80.411C134.668 80.411 134.584 77.381 134.584 77.381C134.584 77.381 134.584 63.4451 134.584 60.9047C134.584 58.3662 136.761 58.6925 136.761 58.6925H142.957C142.959 58.6906 145.137 58.3643 145.137 60.9047ZM131.735 60.9047C131.735 63.4451 131.735 77.381 131.735 77.381C131.735 77.381 131.652 80.411 129.015 80.411C127.426 80.411 125.499 80.411 123.905 80.411C121.266 80.411 121.181 77.381 121.181 77.381C121.181 77.381 121.181 63.4451 121.181 60.9047C121.181 58.3662 123.36 58.6925 123.36 58.6925H129.555C129.559 58.6906 131.735 58.3643 131.735 60.9047ZM118.088 60.9047C118.088 63.4451 118.088 77.381 118.088 77.381C118.088 77.381 118.006 80.411 115.363 80.411C113.773 80.411 111.848 80.411 110.259 80.411C107.619 80.411 107.534 77.381 107.534 77.381C107.534 77.381 107.534 63.4451 107.534 60.9047C107.534 58.3662 109.711 58.6925 109.711 58.6925H115.908C115.91 58.6906 118.088 58.3643 118.088 60.9047ZM105.019 60.9047C105.019 63.4451 105.019 77.381 105.019 77.381C105.019 77.381 104.939 80.411 102.299 80.411C101.17 80.411 98.8216 80.411 97.6901 80.411C95.0529 80.411 94.9681 77.381 94.9681 77.381C94.9681 77.381 94.9681 63.4451 94.9681 60.9047C94.9681 58.3662 97.1463 58.6925 97.1463 58.6925H102.842C102.842 58.6906 105.019 58.3643 105.019 60.9047ZM92.4595 60.9047C92.4595 63.4451 92.4595 77.381 92.4595 77.381C92.4595 77.381 92.3747 80.411 89.7375 80.411C88.146 80.411 86.2192 80.411 84.6277 80.411C81.9886 80.411 81.9057 77.381 81.9057 77.381C81.9057 77.381 81.9057 63.4451 81.9057 60.9047C81.9057 58.3662 84.081 58.6925 84.081 58.6925H90.2794C90.2813 58.6906 92.4595 58.3643 92.4595 60.9047ZM78.8056 60.9047C78.8056 63.4451 78.8056 77.381 78.8056 77.381C78.8056 77.381 78.7237 80.411 76.0836 80.411C74.495 80.411 72.5682 80.411 70.9748 80.411C68.3346 80.411 68.2528 77.381 68.2528 77.381C68.2528 77.381 68.2528 63.4451 68.2528 60.9047C68.2528 58.3662 70.43 58.6925 70.43 58.6925H76.6284C76.6303 58.6906 78.8056 58.3643 78.8056 60.9047ZM65.406 60.9047C65.406 63.4451 65.406 77.381 65.406 77.381C65.406 77.381 65.3242 80.411 62.684 80.411C61.0945 80.411 59.1658 80.411 57.5752 80.411C54.937 80.411 54.8552 77.381 54.8552 77.381C54.8552 77.381 54.8552 63.4451 54.8552 60.9047C54.8552 58.3662 57.0324 58.6925 57.0324 58.6925H63.2307C63.2307 58.6906 65.406 58.3643 65.406 60.9047ZM11.4725 57.2992C11.4725 57.2992 11.724 54.2645 15.5746 54.3456C19.4281 54.4277 48.9931 55.3324 48.9931 55.3324L50.2483 70.8219C50.2483 70.8219 50.4988 74.5104 45.6434 74.1821C40.7861 73.8557 15.5746 70.4106 15.5746 70.4106C15.5746 70.4106 11.6392 69.6758 11.4725 66.5619C11.3039 63.4431 11.4725 57.2992 11.4725 57.2992ZM12.2678 89.3253C11.1392 84.839 12.7726 85.5767 12.7726 85.5767C12.7726 85.5767 41.0395 89.2623 41.7256 89.4474C42.4195 89.6325 46.8168 90.9237 47.0039 94.4261C47.2573 96.3328 17.9857 93.9947 17.9857 93.9947C17.9857 93.9947 13.3974 93.8125 12.2678 89.3253ZM174.408 122.34H25.5835C25.5835 122.34 17.4195 123.201 22.3197 113.608C27.2189 104.019 40.1575 104.51 40.1575 104.51H159.839C159.839 104.51 172.779 104.017 177.677 113.608C182.574 123.199 174.408 122.34 174.408 122.34ZM187.728 89.3253C186.596 93.8125 182.01 93.9947 182.01 93.9947C182.01 93.9947 152.741 96.3328 152.99 94.4261C153.181 90.9237 157.574 89.6325 158.266 89.4474C158.961 89.2623 187.223 85.5767 187.223 85.5767C187.223 85.5767 188.857 84.8371 187.728 89.3253ZM188.521 66.5619C188.355 69.6758 184.414 70.4106 184.414 70.4106C184.414 70.4106 159.208 73.8557 154.352 74.1821C149.497 74.5085 149.748 70.8219 149.748 70.8219L151.002 55.3324C151.002 55.3324 180.566 54.4277 184.414 54.3456C188.27 54.2645 188.521 57.2992 188.521 57.2992C188.521 57.2992 188.688 63.4431 188.521 66.5619Z" fill="#6D2323" fill-opacity="0.4"/>
</svg>
